<?xml version="1.0" encoding="utf-8"?>
<!-- Generator: Adobe Illustrator 16.0.0, SVG Export Plug-In . SVG Version: 6.00 Build 0)  -->
<!DOCTYPE svg PUBLIC "-//W3C//DTD SVG 1.1//EN" "http://www.w3.org/Graphics/SVG/1.1/DTD/svg11.dtd">
<svg version="1.1" id="Layer_1" xmlns="http://www.w3.org/2000/svg" xmlns:xlink="http://www.w3.org/1999/xlink" x="0px" y="0px"
	 width="1280px" height="800px" viewBox="0 0 1280 800" enable-background="new 0 0 1280 800" xml:space="preserve">
<g>
	<g>
		<text transform="matrix(1 0 0 1 522.812 527.9883)" fill="#69DAF4" font-family="'SofiaPro-Medium'" font-size="76.0882">curb</text>
		<g>
			<text transform="matrix(1 0 0 1 680.8047 527.9883)" fill="#2FA6C1" font-family="'SofiaPro-Medium'" font-size="76.0882">map</text>
		</g>
	</g>
	<g>
		<path fill="#2FA6C1" d="M607.969,326.979c0,59.281,59.363,113.601,75.143,126.99c0.06-0.053,0.127-0.113,0.188-0.167V352.954
			c-0.034,0.001-0.067,0.003-0.102,0.003c-13.438,0-24.37-11.199-24.37-24.967c0-13.777,10.933-24.985,24.37-24.985
			c0.034,0,0.067,0.003,0.102,0.003v-53.112c-0.034,0-0.068-0.002-0.103-0.002C641.718,249.894,607.969,284.476,607.969,326.979z"/>
		<path fill="#4EB5D1" d="M707.009,328.157c0,13.733-10.801,24.909-24.271,24.965v100.847
			c16.276-14.179,75.141-70.466,75.141-126.823c0-42.467-33.608-77.025-75.141-77.083v53.113
			C696.208,303.231,707.009,314.416,707.009,328.157z"/>
		<g>
			<g>
				<path fill="#69DAF4" d="M682.739,353.122c-12.347-0.562-23.91-11.365-23.91-25.132c0-13.777,11.038-25.357,24.472-24.982
					c9.167,0.256,17.96,6.149,22.152,16.342l22.566-11.684c-7.755-17.396-25.444-30.707-45.286-30.707
					c-27.1,0-49.144,23.927-49.144,51.709c0,27.765,22.048,51.675,49.148,51.675l0.001-0.375V353.122z"/>
			</g>
		</g>
	</g>
</g>
</svg>
